<?xml version="1.0" encoding="UTF-8" standalone="no"?>
<!DOCTYPE svg PUBLIC "-//W3C//DTD SVG 1.1//EN"
 "http://www.w3.org/Graphics/SVG/1.1/DTD/svg11.dtd">
<!-- Generated by graphviz version 2.44.1 (20200629.0846)
 -->
<!-- Pages: 1 -->
<svg width="277pt" height="313pt"
 viewBox="0.00 0.00 276.50 313.00" xmlns="http://www.w3.org/2000/svg" xmlns:xlink="http://www.w3.org/1999/xlink">
<g id="graph0" class="graph" transform="scale(1 1) rotate(0) translate(4 309)">
<polygon fill="white" stroke="transparent" points="-4,4 -4,-309 272.5,-309 272.5,4 -4,4"/>
<!-- 4984431632 -->
<g id="node1" class="node">
<title>4984431632</title>
<polygon fill="#caff70" stroke="black" points="177,-21 73,-21 73,0 177,0 177,-21"/>
<text text-anchor="middle" x="125" y="-7.4" font-family="Times,serif" font-size="12.00">AddmmBackward</text>
</g>
<!-- 4984262736 -->
<g id="node2" class="node">
<title>4984262736</title>
<polygon fill="lightblue" stroke="black" points="54,-92 0,-92 0,-57 54,-57 54,-92"/>
<text text-anchor="middle" x="27" y="-64.4" font-family="Times,serif" font-size="12.00"> (1)</text>
</g>
<!-- 4984262736&#45;&gt;4984431632 -->
<g id="edge1" class="edge">
<title>4984262736&#45;&gt;4984431632</title>
<path fill="none" stroke="black" d="M53.26,-56.89C68.15,-47.47 86.62,-35.78 101.1,-26.62"/>
<polygon fill="black" stroke="black" points="103.38,-29.32 109.96,-21.02 99.63,-23.41 103.38,-29.32"/>
</g>
<!-- 4982166608 -->
<g id="node3" class="node">
<title>4982166608</title>
<polygon fill="lightgrey" stroke="black" points="177.5,-85 72.5,-85 72.5,-64 177.5,-64 177.5,-85"/>
<text text-anchor="middle" x="125" y="-71.4" font-family="Times,serif" font-size="12.00">SigmoidBackward</text>
</g>
<!-- 4982166608&#45;&gt;4984431632 -->
<g id="edge2" class="edge">
<title>4982166608&#45;&gt;4984431632</title>
<path fill="none" stroke="black" d="M125,-63.81C125,-55.22 125,-42.39 125,-31.59"/>
<polygon fill="black" stroke="black" points="128.5,-31.32 125,-21.32 121.5,-31.32 128.5,-31.32"/>
</g>
<!-- 4984459728 -->
<g id="node4" class="node">
<title>4984459728</title>
<polygon fill="lightgrey" stroke="black" points="177,-156 73,-156 73,-135 177,-135 177,-156"/>
<text text-anchor="middle" x="125" y="-142.4" font-family="Times,serif" font-size="12.00">AddmmBackward</text>
</g>
<!-- 4984459728&#45;&gt;4982166608 -->
<g id="edge3" class="edge">
<title>4984459728&#45;&gt;4982166608</title>
<path fill="none" stroke="black" d="M125,-134.91C125,-124.71 125,-108.3 125,-95.31"/>
<polygon fill="black" stroke="black" points="128.5,-95.01 125,-85.01 121.5,-95.01 128.5,-95.01"/>
</g>
<!-- 4984470096 -->
<g id="node5" class="node">
<title>4984470096</title>
<polygon fill="lightblue" stroke="black" points="111,-234 57,-234 57,-199 111,-199 111,-234"/>
<text text-anchor="middle" x="84" y="-206.4" font-family="Times,serif" font-size="12.00"> (2)</text>
</g>
<!-- 4984470096&#45;&gt;4984459728 -->
<g id="edge4" class="edge">
<title>4984470096&#45;&gt;4984459728</title>
<path fill="none" stroke="black" d="M93.92,-198.8C100.02,-188.54 107.84,-175.38 114.1,-164.84"/>
<polygon fill="black" stroke="black" points="117.23,-166.42 119.33,-156.04 111.21,-162.85 117.23,-166.42"/>
</g>
<!-- 4984469904 -->
<g id="node6" class="node">
<title>4984469904</title>
<polygon fill="lightgrey" stroke="black" points="202.5,-227 129.5,-227 129.5,-206 202.5,-206 202.5,-227"/>
<text text-anchor="middle" x="166" y="-213.4" font-family="Times,serif" font-size="12.00">TBackward</text>
</g>
<!-- 4984469904&#45;&gt;4984459728 -->
<g id="edge5" class="edge">
<title>4984469904&#45;&gt;4984459728</title>
<path fill="none" stroke="black" d="M160.3,-205.91C154,-195.3 143.7,-177.96 135.84,-164.75"/>
<polygon fill="black" stroke="black" points="138.77,-162.82 130.65,-156.01 132.75,-166.4 138.77,-162.82"/>
</g>
<!-- 4984470416 -->
<g id="node7" class="node">
<title>4984470416</title>
<polygon fill="lightblue" stroke="black" points="193,-305 139,-305 139,-270 193,-270 193,-305"/>
<text text-anchor="middle" x="166" y="-277.4" font-family="Times,serif" font-size="12.00"> (2, 1)</text>
</g>
<!-- 4984470416&#45;&gt;4984469904 -->
<g id="edge6" class="edge">
<title>4984470416&#45;&gt;4984469904</title>
<path fill="none" stroke="black" d="M166,-269.8C166,-259.96 166,-247.45 166,-237.14"/>
<polygon fill="black" stroke="black" points="169.5,-237.04 166,-227.04 162.5,-237.04 169.5,-237.04"/>
</g>
<!-- 4984459536 -->
<g id="node8" class="node">
<title>4984459536</title>
<polygon fill="lightgrey" stroke="black" points="268.5,-85 195.5,-85 195.5,-64 268.5,-64 268.5,-85"/>
<text text-anchor="middle" x="232" y="-71.4" font-family="Times,serif" font-size="12.00">TBackward</text>
</g>
<!-- 4984459536&#45;&gt;4984431632 -->
<g id="edge7" class="edge">
<title>4984459536&#45;&gt;4984431632</title>
<path fill="none" stroke="black" d="M215.28,-63.81C197.93,-53.76 170.57,-37.9 150.51,-26.28"/>
<polygon fill="black" stroke="black" points="152.01,-23.1 141.6,-21.12 148.5,-29.16 152.01,-23.1"/>
</g>
<!-- 4984470224 -->
<g id="node9" class="node">
<title>4984470224</title>
<polygon fill="lightblue" stroke="black" points="259,-163 205,-163 205,-128 259,-128 259,-163"/>
<text text-anchor="middle" x="232" y="-135.4" font-family="Times,serif" font-size="12.00"> (1, 2)</text>
</g>
<!-- 4984470224&#45;&gt;4984459536 -->
<g id="edge8" class="edge">
<title>4984470224&#45;&gt;4984459536</title>
<path fill="none" stroke="black" d="M232,-127.8C232,-117.96 232,-105.45 232,-95.14"/>
<polygon fill="black" stroke="black" points="235.5,-95.04 232,-85.04 228.5,-95.04 235.5,-95.04"/>
</g>
</g>
</svg>
